<?xml version="1.0" encoding="UTF-8"?>
<!DOCTYPE svg PUBLIC "-//W3C//DTD SVG 1.1//EN" "http://www.w3.org/Graphics/SVG/1.1/DTD/svg11.dtd">
<svg xmlns="http://www.w3.org/2000/svg" version="1.1" width="1024px" height="1024px" style="shape-rendering:geometricPrecision; text-rendering:geometricPrecision; image-rendering:optimizeQuality; fill-rule:evenodd; clip-rule:evenodd" xmlns:xlink="http://www.w3.org/1999/xlink">
<g><path style="opacity:0.972" fill="#fefffe" d="M 234.5,769.5 C 242.102,720.526 257.602,674.193 281,630.5C 292.268,610.241 303.934,590.241 316,570.5C 381.584,465.668 446.917,360.668 512,255.5C 587.419,376.665 662.086,498.332 736,620.5C 758.728,661.351 774.728,704.684 784,750.5C 785.237,757.146 785.903,763.812 786,770.5C 743.237,694.072 681.737,638.238 601.5,603C 572.83,591.416 543.164,584.082 512.5,581C 542.219,626.722 578.885,666.055 622.5,699C 644.059,714.62 667.059,727.953 691.5,739C 719.286,749.262 747.286,758.929 775.5,768C 733.167,768.667 690.833,768.667 648.5,768C 611.079,756.463 578.079,737.463 549.5,711C 536.181,697.828 523.681,683.995 512,669.5C 504.431,677.646 497.098,685.979 490,694.5C 461.392,724.43 427.892,747.264 389.5,763C 383.668,765.277 377.668,766.944 371.5,768C 335.828,768.251 300.162,768.751 264.5,769.5C 258.453,769.498 252.453,768.998 246.5,768C 359.149,740.229 446.816,677.895 509.5,581C 405.34,596.916 322.173,647.082 260,731.5C 251.245,744.071 242.745,756.738 234.5,769.5 Z M 510.5,265.5 C 512.686,266.823 514.186,268.823 515,271.5C 548.067,346.166 556.067,423.499 539,503.5C 533.158,529.697 524.158,554.697 512,578.5C 506.612,570.391 502.279,561.724 499,552.5C 473.346,483.333 468.346,412.667 484,340.5C 489.567,314.295 498.401,289.295 510.5,265.5 Z M 499.5,573.5 C 476.881,567.483 453.881,564.983 430.5,566C 393.319,569.895 358.319,580.728 325.5,598.5C 339.456,588.842 353.122,578.675 366.5,568C 406.834,532.384 428.001,487.55 430,433.5C 435.228,478.218 451.561,518.218 479,553.5C 485.729,560.397 492.562,567.063 499.5,573.5 Z M 523.5,573.5 C 553.955,545.3 574.789,510.967 586,470.5C 588.969,458.625 591.302,446.625 593,434.5C 592.905,476.228 606.238,512.895 633,544.5C 640.5,552 648,559.5 655.5,567C 670.488,577.829 685.821,588.162 701.5,598C 682.276,590.736 662.943,583.403 643.5,576C 603.741,563.114 563.741,562.28 523.5,573.5 Z"/></g>
<g><path style="opacity:0.059" fill="#fefffe" d="M 234.5,769.5 C 233.833,770.167 233.833,770.167 234.5,769.5 Z"/></g>
</svg>
