<?xml version="1.0" encoding="utf-8" ?><svg xmlns="http://www.w3.org/2000/svg" xmlns:xlink="http://www.w3.org/1999/xlink" width="1024" height="1024" viewBox="0 0 1024 1024"><path d="M512.056 256.804C515.028 259.999 527.302 281.197 530.794 286.803C549.059 316.01 567.161 345.318 585.102 374.725C619.782 430.354 654.133 486.187 688.155 542.22C702.397 565.457 717.416 588.975 730.975 612.573C758.001 659.611 780.337 715.657 786.774 769.683C737.532 683.733 659.741 615.774 562.78 589.942C546.237 585.534 529.282 581.205 512.111 580.362C556.229 648.523 615.79 705.676 690.363 739.192C711.79 748.822 734.588 754.698 756.557 762.929C762.487 765.151 768.66 767.262 774.81 768.77C766 769.237 754.85 768.945 745.889 768.976C727.456 769.144 709.021 769.141 690.588 768.966C682.923 768.944 675.258 768.982 667.593 769.079C648.276 769.296 643.233 767.583 625.351 759.88C579.331 740.057 542.702 708.465 512.125 669.168C511.198 670.062 510.544 670.858 509.706 671.826C479.138 709.368 447.599 736.944 403.127 757.177C379.442 767.953 376.018 768.894 350.387 768.925L317.896 768.934L277.385 769.008C273.418 769.035 249.865 769.755 247.643 768.29C248.619 768.223 249.421 768.184 250.376 767.956C358.483 742.105 452.122 674.85 511.146 580.662C500.728 581.212 490.437 583.335 480.278 585.63C401.659 603.39 330.981 646.315 278.973 707.891C260.859 729.22 250.118 745.662 235.372 768.998C237.313 760.13 238.302 750.838 240.488 741.244C247.069 713.048 256.442 685.576 268.467 659.237C285.489 621.392 310.129 582.837 332.186 547.45L400.983 436.515L467.865 328.32L495.388 283.575C500.388 275.422 506.751 264.224 512.056 256.804ZM512.336 580.183C519.174 568.402 521.958 563.413 530.305 538.812C559.797 451.891 553.999 346.989 512.423 264.493C512.252 264.406 512.08 264.319 511.909 264.232C472.607 333.942 465.824 441.921 487.388 517.889C491.138 531.099 503.866 570.609 512.336 580.183ZM519.435 576.262C530.911 573.182 542.151 570.123 553.909 568.332C583.27 563.859 617.65 567.608 645.644 577.755C666.452 584.927 686.473 594.025 707.366 601.446C692.075 591.379 675.353 581.602 661.007 570.433C623.438 541.185 596.729 496.399 595.011 448.193C594.927 445.836 594.298 433.357 593.187 432.303C591.258 445.365 589.444 457.877 585.909 470.619C575.228 509.12 552.758 551.304 520.429 575.539C520.1 575.784 519.769 576.025 519.435 576.262ZM318.808 602.954C339.592 592.934 356.512 584.508 378.534 577.436C415.104 566.418 445.602 562.839 483.482 570.88C491.126 572.503 497.428 574.586 504.813 576.449C465.637 549.178 440.561 493.763 433.281 447.954C432.657 444.031 431.427 434.052 430.082 430.783C428.518 443.696 428.449 457.146 425.816 469.819C417.072 511.908 391.741 548.584 358.296 575.023C349.868 581.686 340.771 587.427 331.988 593.535C328.912 595.674 321.258 600.546 318.808 602.954Z"/></svg>