<svg width="199" height="166" viewBox="0 0 199 166" fill="none" xmlns="http://www.w3.org/2000/svg">
<path d="M74.9194 0L116.572 0.0205015C138.586 42.0574 158.024 86.2755 180.258 128.301C186.42 139.947 193.084 153.169 198.366 165.195C185.069 165.11 170.431 165.315 157.246 164.664C154.312 162.845 139.974 131.623 137.293 125.955C118.443 126.168 99.5926 126.161 80.7445 125.932C86.0064 114.373 93.0458 100.192 99.3549 89.2898C106.257 88.9891 112.299 89.1812 119.177 89.391C117.484 85.3984 115.348 81.5891 113.419 77.7109C100.546 51.8351 86.9326 26.3099 74.9194 0Z" fill="url(#paint0_linear_25_34)"/>
<path d="M57.4026 50.242C71.1443 50.1144 84.8888 50.113 98.6305 50.2362C92.9264 61.0127 87.9497 72.7852 82.2212 83.5999C80.7303 86.4132 77.5686 93.4172 76.0144 95.7362C64.7833 118.762 53.4025 141.711 41.869 164.582C27.9112 164.664 13.9549 164.846 0 165.13L29.827 105.146C35.0903 94.5686 41.7307 80.4434 47.5356 70.412C50.2105 63.9933 54.1659 56.5053 57.4026 50.242Z" fill="#2B448C"/>
<path d="M57.4026 50.242C71.1443 50.1144 84.8889 50.113 98.6306 50.2362C92.9265 61.0127 87.9498 72.7852 82.2212 83.5999C80.7303 86.4132 77.5686 93.4172 76.0144 95.7362L75.2582 95.6101C75.7321 92.5254 79.0767 86.4484 80.7505 83.7466L81.2561 82.9442L80.7131 81.9468C71.1328 78.5233 59.1671 69.2869 53.6042 60.4524L53.7554 60.1913C52.2228 63.7585 50.5749 66.7098 48.7427 70.1083L47.5356 70.412C50.2105 63.9933 54.166 56.5053 57.4026 50.242Z" fill="#2B7992"/>
<defs>
<linearGradient id="paint0_linear_25_34" x1="166.505" y1="37.7403" x2="97.4102" y2="134.848" gradientUnits="userSpaceOnUse">
<stop stop-color="#42BA78"/>
<stop offset="1" stop-color="#256798"/>
</linearGradient>
</defs>
</svg>
