<svg width="1017" height="166" viewBox="0 0 1017 166" fill="none" xmlns="http://www.w3.org/2000/svg">
<path d="M495.094 37.9925L495.496 38.214L495.507 39.3771C483.966 52.2219 472.22 64.8715 460.271 77.3246C470.423 91.7051 487.104 113.841 498.32 126.776C508.989 99.1579 524.988 66.2401 536.958 38.1216C543.589 38.0644 550.217 38.0468 556.846 38.0702L596.912 128.445C589.842 128.341 582.773 128.393 575.706 128.601C572.924 122.096 570.244 115.548 567.664 108.958L560.11 108.705C548.665 108.758 537.218 108.705 525.773 108.545L517.814 128.448L475.51 128.588C465.558 116.657 456.453 103.519 446.375 91.4044C441.986 95.8869 437.586 100.647 433.253 105.211C433.58 112.331 433.43 121.274 433.445 128.494C427.509 128.007 419.658 128.374 413.567 128.484C412.649 98.5345 413.616 68.2129 413.097 38.3313L433.184 37.9719C433.126 52.3935 433.175 66.815 433.327 81.2366C446.213 68.4109 460.924 51.9036 473.715 38.3914C480.946 38.3973 487.861 38.456 495.094 37.9925ZM532.595 93.4462C538.165 93.3523 543.736 93.2981 549.307 93.2834L561.503 93.2922C559.396 88.4635 548.377 60.9845 546.579 59.2288C542.138 71.0365 536.673 81.5549 532.595 93.4462Z" fill="#3F4447"/>
<path d="M608.425 38.2902C632.451 38.8343 667.87 32.9848 686.149 51.9681C703.338 69.8219 700.646 98.6767 684.199 115.991C669.08 129.28 654.679 128.557 636.104 128.516L608.779 128.555C608.203 118.602 608.641 107.934 608.582 97.8612C608.29 78.0052 608.236 58.1462 608.425 38.2902ZM628.898 111.799C643.119 111.771 653.325 113.421 666.072 106.775C688.5 88.9108 676.464 55.1715 648.849 54.5437C644.244 54.4381 639.492 54.3296 634.906 54.7344C632.775 54.8254 630.442 54.5863 628.837 55.7803C628.263 71.9737 628.183 95.7314 628.898 111.799Z" fill="#3F4447"/>
<path d="M961.5 37.0626C1028.73 32.5156 1035.72 118.141 975.688 129.852C962.022 130.335 950.351 129.487 938.762 121.21C928.702 113.949 921.968 102.843 920.102 90.4306C918.107 78.306 920.988 65.8749 928.094 55.9359C936.467 44.3922 947.894 39.1176 961.5 37.0626ZM971.52 112.217C987.11 110.338 998.318 96.0411 996.663 80.1439C995.007 64.2468 981.104 52.6606 965.474 54.1523C955.193 55.1336 946.223 61.6696 941.994 71.2625C937.763 80.8553 938.926 92.0235 945.038 100.5C951.149 108.977 961.264 113.452 971.52 112.217Z" fill="#3F4447"/>
<path d="M802.681 38.261L819.35 38.3182C822.921 42.9738 829.089 54.3268 832.191 59.7671C838.726 71.4076 845.44 82.9455 852.328 94.3733C861.68 76.1865 874.147 56.6458 884.404 38.4942L901.665 38.4737C901.235 47.0955 901.67 60.1324 901.696 68.9948L901.83 128.406C897.044 127.835 888.308 128.321 883.342 128.491C883.484 120.564 883.423 112.402 883.456 104.455L883.436 72.6911C877.797 80.4138 871.215 92.6938 866.508 101.255C852.769 126.245 851.257 124.377 837.29 101.06L821.159 74.13C821.114 91.9061 820.851 110.605 821.256 128.327C815.803 128.006 808.809 128.365 803.234 128.495C802.577 117.188 802.979 104.192 802.975 92.7202L802.681 38.261Z" fill="#3F4447"/>
<path d="M74.9194 0L116.572 0.0205015C138.586 42.0574 158.024 86.2755 180.258 128.301C186.42 139.947 193.084 153.169 198.366 165.195C185.069 165.11 170.431 165.315 157.246 164.664C154.312 162.845 139.974 131.623 137.293 125.955C118.443 126.168 99.5926 126.161 80.7445 125.932C86.0064 114.373 93.0458 100.192 99.3549 89.2898C106.257 88.9891 112.299 89.1812 119.177 89.391C117.484 85.3984 115.348 81.5891 113.419 77.7109C100.546 51.8351 86.9326 26.3099 74.9194 0Z" fill="url(#paint0_linear_31_51)"/>
<path d="M57.4026 50.242C71.1443 50.1144 84.8888 50.113 98.6305 50.2362C92.9264 61.0127 87.9497 72.7852 82.2212 83.5999C80.7303 86.4132 77.5686 93.4172 76.0144 95.7362C64.7833 118.762 53.4025 141.711 41.869 164.582C27.9112 164.664 13.9549 164.846 0 165.13L29.827 105.146C35.0903 94.5686 41.7307 80.4434 47.5356 70.412C50.2105 63.9933 54.1659 56.5053 57.4026 50.242Z" fill="#2B448C"/>
<path d="M57.4026 50.242C71.1443 50.1144 84.8889 50.113 98.6306 50.2362C92.9265 61.0127 87.9498 72.7852 82.2212 83.5999C80.7303 86.4132 77.5686 93.4172 76.0144 95.7362L75.2582 95.6101C75.7321 92.5254 79.0767 86.4484 80.7505 83.7466L81.2561 82.9442L80.7131 81.9468C71.1328 78.5233 59.1671 69.2869 53.6042 60.4524L53.7554 60.1913C52.2228 63.7585 50.5749 66.7098 48.7427 70.1083L47.5356 70.412C50.2105 63.9933 54.166 56.5053 57.4026 50.242Z" fill="#2B7992"/>
<path d="M342.726 38.3284C349.07 38.5337 356.008 38.3533 362.4 38.3181C375.263 66.1638 389.667 100.07 401.83 128.479L381.177 128.489C378.229 121.97 375.147 115.451 372.723 108.717L361.511 108.691L331.574 108.732L323.551 128.553L302.952 128.643C305.768 119.282 316.147 98.0534 320.46 88.4664C327.746 72.2715 335.142 54.1991 342.726 38.3284ZM338.209 93.3186L352.311 93.2819L366.924 93.2936C362.191 82.5567 356.41 69.5887 352.573 58.4895C348.42 68.4226 341.437 83.5717 338.209 93.3186Z" fill="#3F4447"/>
<path d="M714.894 38.1318C735.89 38.9371 761.193 38.2213 782.517 38.1905C782.389 43.5003 782.501 49.105 782.526 54.4412C766.898 54.0979 750.591 54.227 734.924 54.1493C734.862 60.8496 734.904 67.5499 735.05 74.2488C748.652 74.1784 762.191 74.5055 775.974 74.3705C776.191 79.6392 776.127 85.1045 776.136 90.3938L736.923 90.4671L735.848 90.4803C734.016 92.6937 734.906 108.33 734.988 112.275C751.365 112.165 767.742 112.149 784.12 112.227C783.939 117.723 784.075 123.098 784.173 128.595C761.07 128.456 737.966 128.448 714.863 128.573C715.358 118.863 715.04 106.267 715.049 96.3651C715.106 76.9535 715.056 57.5434 714.894 38.1318Z" fill="#3F4447"/>
<defs>
<linearGradient id="paint0_linear_31_51" x1="166.505" y1="37.7403" x2="97.4102" y2="134.848" gradientUnits="userSpaceOnUse">
<stop stop-color="#42BA78"/>
<stop offset="1" stop-color="#256798"/>
</linearGradient>
</defs>
</svg>
