<svg width="927" height="166" viewBox="0 0 927 166" fill="none" xmlns="http://www.w3.org/2000/svg">
<path d="M405.094 32.9925L405.496 33.214L405.507 34.3771C393.966 47.2219 382.22 59.8715 370.271 72.3246C380.423 86.7051 397.104 108.841 408.32 121.776C418.989 94.1579 434.988 61.2401 446.958 33.1216C453.589 33.0644 460.217 33.0468 466.846 33.0702L506.912 123.445C499.842 123.341 492.773 123.393 485.706 123.601C482.924 117.096 480.244 110.548 477.664 103.958L470.11 103.705C458.665 103.758 447.218 103.705 435.773 103.545L427.814 123.448L385.51 123.588C375.558 111.657 366.453 98.5187 356.375 86.4044C351.986 90.8869 347.586 95.6467 343.253 100.211C343.58 107.331 343.43 116.274 343.445 123.494C337.509 123.007 329.658 123.374 323.567 123.484C322.649 93.5345 323.616 63.2129 323.097 33.3313L343.184 32.9719C343.126 47.3935 343.175 61.815 343.327 76.2366C356.213 63.4109 370.924 46.9036 383.715 33.3914C390.946 33.3973 397.861 33.456 405.094 32.9925ZM442.595 88.4462C448.165 88.3523 453.736 88.2981 459.307 88.2834L471.503 88.2922C469.396 83.4635 458.377 55.9845 456.579 54.2288C452.138 66.0365 446.673 76.5549 442.595 88.4462Z" fill="#3F4447"/>
<path d="M518.425 33.2902C542.451 33.8343 577.87 27.9848 596.149 46.9681C613.338 64.8219 610.646 93.6767 594.199 110.991C579.08 124.28 564.679 123.557 546.104 123.516L518.779 123.555C518.203 113.602 518.641 102.934 518.582 92.8612C518.29 73.0052 518.236 53.1462 518.425 33.2902ZM538.898 106.799C553.119 106.771 563.325 108.421 576.072 101.775C598.5 83.9108 586.464 50.1715 558.849 49.5437C554.244 49.4381 549.492 49.3296 544.906 49.7344C542.775 49.8254 540.442 49.5863 538.837 50.7803C538.263 66.9737 538.183 90.7314 538.898 106.799Z" fill="#3F4447"/>
<path d="M871.5 32.0626C938.729 27.5156 945.716 113.141 885.688 124.852C872.022 125.335 860.351 124.487 848.762 116.21C838.702 108.949 831.968 97.8426 830.102 85.4306C828.107 73.306 830.988 60.8749 838.094 50.9359C846.467 39.3922 857.894 34.1176 871.5 32.0626ZM881.52 107.217C897.11 105.338 908.318 91.0411 906.663 75.1439C905.007 59.2468 891.104 47.6606 875.474 49.1523C865.193 50.1336 856.223 56.6696 851.994 66.2625C847.763 75.8553 848.926 87.0235 855.038 95.5002C861.149 103.977 871.264 108.452 881.52 107.217Z" fill="#3F4447"/>
<path d="M712.681 33.261L729.35 33.3182C732.921 37.9738 739.089 49.3268 742.191 54.7671C748.726 66.4076 755.44 77.9455 762.328 89.3733C771.68 71.1865 784.147 51.6458 794.404 33.4942L811.665 33.4737C811.235 42.0955 811.67 55.1324 811.696 63.9948L811.83 123.406C807.044 122.835 798.308 123.321 793.342 123.491C793.484 115.564 793.423 107.402 793.456 99.4546L793.436 67.6911C787.797 75.4138 781.215 87.6938 776.508 96.2555C762.769 121.245 761.257 119.377 747.29 96.0604L731.159 69.13C731.114 86.9061 730.851 105.605 731.256 123.327C725.803 123.006 718.809 123.365 713.234 123.495C712.577 112.188 712.979 99.192 712.975 87.7202L712.681 33.261Z" fill="#3F4447"/>
<path d="M74.9194 0L116.572 0.0205015C138.586 42.0574 158.024 86.2755 180.258 128.301C186.42 139.947 193.084 153.169 198.366 165.195C185.069 165.11 170.431 165.315 157.246 164.664C154.312 162.845 139.974 131.623 137.293 125.955C118.443 126.168 99.5926 126.161 80.7445 125.932C86.0064 114.373 93.0458 100.192 99.3549 89.2898C106.257 88.9891 112.299 89.1812 119.177 89.391C117.484 85.3984 115.348 81.5891 113.419 77.7109C100.546 51.8351 86.9326 26.3099 74.9194 0Z" fill="url(#paint0_linear_26_35)"/>
<path d="M57.4026 50.242C71.1443 50.1144 84.8888 50.113 98.6305 50.2362C92.9264 61.0127 87.9497 72.7852 82.2212 83.5999C80.7303 86.4132 77.5686 93.4172 76.0144 95.7362C64.7833 118.762 53.4025 141.711 41.869 164.582C27.9112 164.664 13.9549 164.846 0 165.13L29.827 105.146C35.0903 94.5686 41.7307 80.4434 47.5356 70.412C50.2105 63.9933 54.1659 56.5053 57.4026 50.242Z" fill="#2B448C"/>
<path d="M57.4026 50.242C71.1443 50.1144 84.8889 50.113 98.6306 50.2362C92.9265 61.0127 87.9498 72.7852 82.2212 83.5999C80.7303 86.4132 77.5686 93.4172 76.0144 95.7362L75.2582 95.6101C75.7321 92.5254 79.0767 86.4484 80.7505 83.7466L81.2561 82.9442L80.7131 81.9468C71.1328 78.5233 59.1671 69.2869 53.6042 60.4524L53.7554 60.1913C52.2228 63.7585 50.5749 66.7098 48.7427 70.1083L47.5356 70.412C50.2105 63.9933 54.166 56.5053 57.4026 50.242Z" fill="#2B7992"/>
<path d="M252.726 33.3284C259.07 33.5337 266.008 33.3533 272.4 33.3181C285.263 61.1638 299.667 95.0703 311.83 123.479L291.177 123.489C288.229 116.97 285.147 110.451 282.723 103.717L271.511 103.691L241.574 103.732L233.551 123.553L212.952 123.643C215.768 114.282 226.147 93.0534 230.46 83.4664C237.746 67.2715 245.142 49.1991 252.726 33.3284ZM248.209 88.3186L262.311 88.2819L276.924 88.2936C272.191 77.5567 266.41 64.5887 262.573 53.4895C258.42 63.4226 251.437 78.5717 248.209 88.3186Z" fill="#3F4447"/>
<path d="M624.894 33.1318C645.89 33.9371 671.193 33.2213 692.517 33.1905C692.389 38.5003 692.501 44.105 692.526 49.4412C676.898 49.0979 660.591 49.227 644.924 49.1493C644.862 55.8496 644.904 62.5499 645.05 69.2488C658.652 69.1784 672.191 69.5055 685.974 69.3705C686.191 74.6392 686.127 80.1045 686.136 85.3938L646.923 85.4671L645.848 85.4803C644.016 87.6937 644.906 103.33 644.988 107.275C661.365 107.165 677.742 107.149 694.12 107.227C693.939 112.723 694.075 118.098 694.173 123.595C671.07 123.456 647.966 123.448 624.863 123.573C625.358 113.863 625.04 101.267 625.049 91.3651C625.106 71.9535 625.056 52.5434 624.894 33.1318Z" fill="#3F4447"/>
<defs>
<linearGradient id="paint0_linear_26_35" x1="166.505" y1="37.7403" x2="97.4102" y2="134.848" gradientUnits="userSpaceOnUse">
<stop stop-color="#42BA78"/>
<stop offset="1" stop-color="#256798"/>
</linearGradient>
</defs>
</svg>
